{
  "accessors": [
    {
      "bufferView": 0,
      "componentType": 5125,
      "count": 2364,
      "type": "SCALAR"
    },
    {
      "bufferView": 1,
      "componentType": 5126,
      "count": 668,
      "max": [
        0.020399999494152145,
        0.014528173465642495,
        0.004199999893899076
      ],
      "min": [
        -0.020399999494152152,
        -0.014528173465642495,
        -0.004199999893899076
      ],
      "type": "VEC3"
    },
    {
      "bufferView": 2,
      "componentType": 5126,
      "count": 668,
      "max": [
        1.0,
        1.0,
        1.0
      ],
      "min": [
        -1.0,
        -1.0,
        -1.0
      ],
      "type": "VEC3"
    },
    {
      "bufferView": 3,
      "componentType": 5126,
      "count": 668,
      "max": [
        1.0,
        0.571910950565559
      ],
      "min": [
        0.0,
        0.0
      ],
      "type": "VEC2"
    }
  ],
  "asset": {
    "generator": "Adobe Illustrator",
    "version": "2.0"
  },
  "bufferViews": [
    {
      "buffer": 0,
      "byteLength": 9456,
      "target": 34963
    },
    {
      "buffer": 0,
      "byteLength": 8016,
      "byteOffset": 9456,
      "target": 34962
    },
    {
      "buffer": 0,
      "byteLength": 8016,
      "byteOffset": 17472,
      "target": 34962
    },
    {
      "buffer": 0,
      "byteLength": 5344,
      "byteOffset": 25488,
      "target": 34962
    }
  ],
  "buffers": [
    {
      "byteLength": 30832,
      "uri": "data:application/octet-stream;base64,"
    }
  ],
  "materials": [
    {
      "doubleSided": true,
      "pbrMetallicRoughness": {
        "baseColorFactor": [
          0.59765625,
          0.59765625,
          0.59765625,
          1.0
        ],
        "metallicFactor": 0.0,
        "roughnessFactor": 0.4000000059604645
      }
    }
  ],
  "meshes": [
    {
      "primitives": [
        {
          "attributes": {
            "NORMAL": 2,
            "POSITION": 1,
            "TEXCOORD_0": 3
          },
          "indices": 0,
          "material": 0,
          "mode": 4
        }
      ]
    }
  ],
  "nodes": [
    {
      "mesh": 0
    }
  ],
  "scenes": [
    {
      "nodes": [
        0
      ]
    }
  ]
}
